<?xml version="1.0" encoding="UTF-8" standalone="no"?>
<!-- Created with Inkscape (http://www.inkscape.org/) -->

<svg
   xmlns:dc="http://purl.org/dc/elements/1.1/"
   xmlns:cc="http://creativecommons.org/ns#"
   xmlns:rdf="http://www.w3.org/1999/02/22-rdf-syntax-ns#"
   xmlns:svg="http://www.w3.org/2000/svg"
   xmlns="http://www.w3.org/2000/svg"
   xmlns:sodipodi="http://sodipodi.sourceforge.net/DTD/sodipodi-0.dtd"
   xmlns:inkscape="http://www.inkscape.org/namespaces/inkscape"
   width="142.40369mm"
   height="86.605621mm"
   viewBox="0 0 504.57999 306.87031"
   id="svg2"
   version="1.1"
   inkscape:version="0.91 r13725"
   sodipodi:docname="ls-geometric-01.svg">
  <defs
     id="defs4">
    <clipPath
       id="clipPath4152"
       clipPathUnits="userSpaceOnUse">
      <path
         inkscape:connector-curvature="0"
         id="path4154"
         d="m 54,738 504,0 0,-661.699 -504,0 L 54,738 Z" />
    </clipPath>
    <clipPath
       id="clipPath4162"
       clipPathUnits="userSpaceOnUse">
      <path
         inkscape:connector-curvature="0"
         id="path4164"
         d="m 62.801,726.418 486.402,0 0,-71.426 -486.402,0 0,71.426 z" />
    </clipPath>
    <clipPath
       id="clipPath4168"
       clipPathUnits="userSpaceOnUse">
      <path
         inkscape:connector-curvature="0"
         id="path4170"
         d="m 62.184,725.723 36.832,0 0,-20.465 -36.832,0 0,20.465 z" />
    </clipPath>
    <clipPath
       id="clipPath4180"
       clipPathUnits="userSpaceOnUse">
      <path
         inkscape:connector-curvature="0"
         id="path4182"
         d="m 62.801,726.418 486.402,0 0,-71.426 -486.402,0 0,71.426 z" />
    </clipPath>
    <clipPath
       id="clipPath4186"
       clipPathUnits="userSpaceOnUse">
      <path
         inkscape:connector-curvature="0"
         id="path4188"
         d="m 91.652,724.902 53.203,0 0,-20.465 -53.203,0 0,20.465 z" />
    </clipPath>
    <clipPath
       id="clipPath4198"
       clipPathUnits="userSpaceOnUse">
      <path
         inkscape:connector-curvature="0"
         id="path4200"
         d="m 62.801,726.418 486.402,0 0,-71.426 -486.402,0 0,71.426 z" />
    </clipPath>
    <clipPath
       id="clipPath4204"
       clipPathUnits="userSpaceOnUse">
      <path
         inkscape:connector-curvature="0"
         id="path4206"
         d="m 137.488,725.723 97.406,0 0,-20.465 -97.406,0 0,20.465 z" />
    </clipPath>
    <clipPath
       id="clipPath4216"
       clipPathUnits="userSpaceOnUse">
      <path
         inkscape:connector-curvature="0"
         id="path4218"
         d="m 62.801,726.418 486.402,0 0,-71.426 -486.402,0 0,71.426 z" />
    </clipPath>
    <clipPath
       id="clipPath4222"
       clipPathUnits="userSpaceOnUse">
      <path
         inkscape:connector-curvature="0"
         id="path4224"
         d="m 227.527,724.902 83.488,0 0,-20.465 -83.488,0 0,20.465 z" />
    </clipPath>
    <clipPath
       id="clipPath4234"
       clipPathUnits="userSpaceOnUse">
      <path
         inkscape:connector-curvature="0"
         id="path4236"
         d="m 62.801,726.418 486.402,0 0,-71.426 -486.402,0 0,71.426 z" />
    </clipPath>
    <clipPath
       id="clipPath4240"
       clipPathUnits="userSpaceOnUse">
      <path
         inkscape:connector-curvature="0"
         id="path4242"
         d="m 303.652,725.723 80.215,0 0,-20.465 -80.215,0 0,20.465 z" />
    </clipPath>
    <clipPath
       id="clipPath4252"
       clipPathUnits="userSpaceOnUse">
      <path
         inkscape:connector-curvature="0"
         id="path4254"
         d="m 62.801,726.418 486.402,0 0,-71.426 -486.402,0 0,71.426 z" />
    </clipPath>
    <clipPath
       id="clipPath4258"
       clipPathUnits="userSpaceOnUse">
      <path
         inkscape:connector-curvature="0"
         id="path4260"
         d="m 384.688,725.723 91.676,0 0,-20.465 -91.676,0 0,20.465 z" />
    </clipPath>
    <clipPath
       id="clipPath4270"
       clipPathUnits="userSpaceOnUse">
      <path
         inkscape:connector-curvature="0"
         id="path4272"
         d="m 62.801,726.418 486.402,0 0,-71.426 -486.402,0 0,71.426 z" />
    </clipPath>
    <clipPath
       id="clipPath4276"
       clipPathUnits="userSpaceOnUse">
      <path
         inkscape:connector-curvature="0"
         id="path4278"
         d="m 468.996,724.902 37.652,0 0,-20.465 -37.652,0 0,20.465 z" />
    </clipPath>
    <clipPath
       id="clipPath4288"
       clipPathUnits="userSpaceOnUse">
      <path
         inkscape:connector-curvature="0"
         id="path4290"
         d="m 62.801,726.418 486.402,0 0,-71.426 -486.402,0 0,71.426 z" />
    </clipPath>
    <clipPath
       id="clipPath4294"
       clipPathUnits="userSpaceOnUse">
      <path
         inkscape:connector-curvature="0"
         id="path4296"
         d="m 499.281,725.723 18.828,0 0,-20.465 -18.828,0 0,20.465 z" />
    </clipPath>
    <clipPath
       id="clipPath4306"
       clipPathUnits="userSpaceOnUse">
      <path
         inkscape:connector-curvature="0"
         id="path4308"
         d="m 62.801,726.418 486.402,0 0,-71.426 -486.402,0 0,71.426 z" />
    </clipPath>
    <clipPath
       id="clipPath4312"
       clipPathUnits="userSpaceOnUse">
      <path
         inkscape:connector-curvature="0"
         id="path4314"
         d="m 533.66,725.723 12.277,0 0,-20.465 -12.277,0 0,20.465 z" />
    </clipPath>
    <clipPath
       id="clipPath4324"
       clipPathUnits="userSpaceOnUse">
      <path
         inkscape:connector-curvature="0"
         id="path4326"
         d="m 62.801,726.418 486.402,0 0,-71.426 -486.402,0 0,71.426 z" />
    </clipPath>
    <clipPath
       id="clipPath4330"
       clipPathUnits="userSpaceOnUse">
      <path
         inkscape:connector-curvature="0"
         id="path4332"
         d="m 62.184,712.625 56.48,0 0,-20.465 -56.48,0 0,20.465 z" />
    </clipPath>
    <clipPath
       id="clipPath4342"
       clipPathUnits="userSpaceOnUse">
      <path
         inkscape:connector-curvature="0"
         id="path4344"
         d="m 62.801,726.418 486.402,0 0,-71.426 -486.402,0 0,71.426 z" />
    </clipPath>
    <clipPath
       id="clipPath4348"
       clipPathUnits="userSpaceOnUse">
      <path
         inkscape:connector-curvature="0"
         id="path4350"
         d="m 85.105,690.523 41.746,0 0,-20.465 -41.746,0 0,20.465 z" />
    </clipPath>
    <clipPath
       id="clipPath4360"
       clipPathUnits="userSpaceOnUse">
      <path
         inkscape:connector-curvature="0"
         id="path4362"
         d="m 62.801,726.418 486.402,0 0,-71.426 -486.402,0 0,71.426 z" />
    </clipPath>
    <clipPath
       id="clipPath4368"
       clipPathUnits="userSpaceOnUse">
      <path
         inkscape:connector-curvature="0"
         id="path4370"
         d="m 79.375,676.609 49.93,0 0,-20.465 -49.93,0 0,20.465 z" />
    </clipPath>
    <clipPath
       id="clipPath4380"
       clipPathUnits="userSpaceOnUse">
      <path
         inkscape:connector-curvature="0"
         id="path4382"
         d="m 62.801,726.418 486.402,0 0,-71.426 -486.402,0 0,71.426 z" />
    </clipPath>
    <clipPath
       id="clipPath4386"
       clipPathUnits="userSpaceOnUse">
      <path
         inkscape:connector-curvature="0"
         id="path4388"
         d="m 127.668,676.609 52.387,0 0,-20.465 -52.387,0 0,20.465 z" />
    </clipPath>
    <clipPath
       id="clipPath4398"
       clipPathUnits="userSpaceOnUse">
      <path
         inkscape:connector-curvature="0"
         id="path4400"
         d="m 62.801,726.418 486.402,0 0,-71.426 -486.402,0 0,71.426 z" />
    </clipPath>
    <clipPath
       id="clipPath4404"
       clipPathUnits="userSpaceOnUse">
      <path
         inkscape:connector-curvature="0"
         id="path4406"
         d="m 181.691,676.609 54.84,0 0,-20.465 -54.84,0 0,20.465 z" />
    </clipPath>
    <clipPath
       id="clipPath4416"
       clipPathUnits="userSpaceOnUse">
      <path
         inkscape:connector-curvature="0"
         id="path4418"
         d="m 62.801,726.418 486.402,0 0,-71.426 -486.402,0 0,71.426 z" />
    </clipPath>
    <clipPath
       id="clipPath4426"
       clipPathUnits="userSpaceOnUse">
      <path
         inkscape:connector-curvature="0"
         id="path4428"
         d="m 62.801,639.52 486.402,0 0,-278.711 -486.402,0 0,278.711 z" />
    </clipPath>
    <clipPath
       id="clipPath4432"
       clipPathUnits="userSpaceOnUse">
      <path
         inkscape:connector-curvature="0"
         id="path4434"
         d="m 103.285,635.223 404.559,0 0,-270.113 -404.559,0 0,270.113 z" />
    </clipPath>
    <clipPath
       id="clipPath4494"
       clipPathUnits="userSpaceOnUse">
      <path
         inkscape:connector-curvature="0"
         id="path4496"
         d="m 62.801,345.34 486.402,0 0,-61.625 -486.402,0 0,61.625 z" />
    </clipPath>
    <clipPath
       id="clipPath4500"
       clipPathUnits="userSpaceOnUse">
      <path
         inkscape:connector-curvature="0"
         id="path4502"
         d="m 62.184,342.648 73.668,0 0,-20.465 -73.668,0 0,20.465 z" />
    </clipPath>
    <clipPath
       id="clipPath4512"
       clipPathUnits="userSpaceOnUse">
      <path
         inkscape:connector-curvature="0"
         id="path4514"
         d="m 62.801,345.34 486.402,0 0,-61.625 -486.402,0 0,61.625 z" />
    </clipPath>
    <clipPath
       id="clipPath4518"
       clipPathUnits="userSpaceOnUse">
      <path
         inkscape:connector-curvature="0"
         id="path4520"
         d="m 134.215,342.648 73.668,0 0,-20.465 -73.668,0 0,20.465 z" />
    </clipPath>
    <clipPath
       id="clipPath4530"
       clipPathUnits="userSpaceOnUse">
      <path
         inkscape:connector-curvature="0"
         id="path4532"
         d="m 62.801,345.34 486.402,0 0,-61.625 -486.402,0 0,61.625 z" />
    </clipPath>
    <clipPath
       id="clipPath4536"
       clipPathUnits="userSpaceOnUse">
      <path
         inkscape:connector-curvature="0"
         id="path4538"
         d="m 200.516,341.832 64.664,0 0,-20.465 -64.664,0 0,20.465 z" />
    </clipPath>
    <clipPath
       id="clipPath4548"
       clipPathUnits="userSpaceOnUse">
      <path
         inkscape:connector-curvature="0"
         id="path4550"
         d="m 62.801,345.34 486.402,0 0,-61.625 -486.402,0 0,61.625 z" />
    </clipPath>
    <clipPath
       id="clipPath4554"
       clipPathUnits="userSpaceOnUse">
      <path
         inkscape:connector-curvature="0"
         id="path4556"
         d="m 257.812,342.648 22.102,0 0,-20.465 -22.102,0 0,20.465 z" />
    </clipPath>
    <clipPath
       id="clipPath4566"
       clipPathUnits="userSpaceOnUse">
      <path
         inkscape:connector-curvature="0"
         id="path4568"
         d="m 62.801,345.34 486.402,0 0,-61.625 -486.402,0 0,61.625 z" />
    </clipPath>
    <clipPath
       id="clipPath4572"
       clipPathUnits="userSpaceOnUse">
      <path
         inkscape:connector-curvature="0"
         id="path4574"
         d="m 315.93,342.648 86.766,0 0,-20.465 -86.766,0 0,20.465 z" />
    </clipPath>
    <clipPath
       id="clipPath4584"
       clipPathUnits="userSpaceOnUse">
      <path
         inkscape:connector-curvature="0"
         id="path4586"
         d="m 62.801,345.34 486.402,0 0,-61.625 -486.402,0 0,61.625 z" />
    </clipPath>
    <clipPath
       id="clipPath4590"
       clipPathUnits="userSpaceOnUse">
      <path
         inkscape:connector-curvature="0"
         id="path4592"
         d="m 401.875,342.648 46.656,0 0,-20.465 -46.656,0 0,20.465 z" />
    </clipPath>
    <clipPath
       id="clipPath4602"
       clipPathUnits="userSpaceOnUse">
      <path
         inkscape:connector-curvature="0"
         id="path4604"
         d="m 62.801,345.34 486.402,0 0,-61.625 -486.402,0 0,61.625 z" />
    </clipPath>
    <clipPath
       id="clipPath4608"
       clipPathUnits="userSpaceOnUse">
      <path
         inkscape:connector-curvature="0"
         id="path4610"
         d="m 464.082,342.648 18.828,0 0,-20.465 -18.828,0 0,20.465 z" />
    </clipPath>
    <clipPath
       id="clipPath4620"
       clipPathUnits="userSpaceOnUse">
      <path
         inkscape:connector-curvature="0"
         id="path4622"
         d="m 62.801,345.34 486.402,0 0,-61.625 -486.402,0 0,61.625 z" />
    </clipPath>
    <clipPath
       id="clipPath4626"
       clipPathUnits="userSpaceOnUse">
      <path
         inkscape:connector-curvature="0"
         id="path4628"
         d="m 475.543,341.832 55.66,0 0,-20.465 -55.66,0 0,20.465 z" />
    </clipPath>
    <clipPath
       id="clipPath4638"
       clipPathUnits="userSpaceOnUse">
      <path
         inkscape:connector-curvature="0"
         id="path4640"
         d="m 62.801,345.34 486.402,0 0,-61.625 -486.402,0 0,61.625 z" />
    </clipPath>
    <clipPath
       id="clipPath4644"
       clipPathUnits="userSpaceOnUse">
      <path
         inkscape:connector-curvature="0"
         id="path4646"
         d="m 62.184,328.734 42.562,0 0,-20.465 -42.562,0 0,20.465 z" />
    </clipPath>
    <clipPath
       id="clipPath4656"
       clipPathUnits="userSpaceOnUse">
      <path
         inkscape:connector-curvature="0"
         id="path4658"
         d="m 62.801,345.34 486.402,0 0,-61.625 -486.402,0 0,61.625 z" />
    </clipPath>
    <clipPath
       id="clipPath4662"
       clipPathUnits="userSpaceOnUse">
      <path
         inkscape:connector-curvature="0"
         id="path4664"
         d="m 97.383,329.555 19.645,0 0,-20.465 -19.645,0 0,20.465 z" />
    </clipPath>
    <clipPath
       id="clipPath4674"
       clipPathUnits="userSpaceOnUse">
      <path
         inkscape:connector-curvature="0"
         id="path4676"
         d="m 62.801,345.34 486.402,0 0,-61.625 -486.402,0 0,61.625 z" />
    </clipPath>
    <clipPath
       id="clipPath4680"
       clipPathUnits="userSpaceOnUse">
      <path
         inkscape:connector-curvature="0"
         id="path4682"
         d="m 79.375,304.996 49.93,0 0,-20.465 -49.93,0 0,20.465 z" />
    </clipPath>
    <clipPath
       id="clipPath4692"
       clipPathUnits="userSpaceOnUse">
      <path
         inkscape:connector-curvature="0"
         id="path4694"
         d="m 62.801,345.34 486.402,0 0,-61.625 -486.402,0 0,61.625 z" />
    </clipPath>
    <clipPath
       id="clipPath4702"
       clipPathUnits="userSpaceOnUse">
      <path
         inkscape:connector-curvature="0"
         id="path4704"
         d="m 62.801,721.16 486.402,0 0,-11.52 -486.402,0 0,11.52 z" />
    </clipPath>
    <clipPath
       id="clipPath4708"
       clipPathUnits="userSpaceOnUse">
      <path
         inkscape:connector-curvature="0"
         id="path4710"
         d="m 376.5,724.086 15.551,0 0,-17.188 -15.551,0 0,17.188 z" />
    </clipPath>
    <clipPath
       id="clipPath4720"
       clipPathUnits="userSpaceOnUse">
      <path
         inkscape:connector-curvature="0"
         id="path4722"
         d="m 62.801,721.148 486.402,0 0,-13.527 -486.402,0 0,13.527 z" />
    </clipPath>
    <clipPath
       id="clipPath4726"
       clipPathUnits="userSpaceOnUse">
      <path
         inkscape:connector-curvature="0"
         id="path4728"
         d="m 510.738,724.086 13.914,0 0,-19.645 -13.914,0 0,19.645 z" />
    </clipPath>
    <clipPath
       id="clipPath4738"
       clipPathUnits="userSpaceOnUse">
      <path
         inkscape:connector-curvature="0"
         id="path4740"
         d="m 62.801,721.148 486.402,0 0,-13.527 -486.402,0 0,13.527 z" />
    </clipPath>
    <clipPath
       id="clipPath4744"
       clipPathUnits="userSpaceOnUse">
      <path
         inkscape:connector-curvature="0"
         id="path4746"
         d="m 518.105,724.086 10.641,0 0,-19.645 -10.641,0 0,19.645 z" />
    </clipPath>
    <clipPath
       id="clipPath4756"
       clipPathUnits="userSpaceOnUse">
      <path
         inkscape:connector-curvature="0"
         id="path4758"
         d="m 62.801,721.148 486.402,0 0,-13.527 -486.402,0 0,13.527 z" />
    </clipPath>
    <clipPath
       id="clipPath4762"
       clipPathUnits="userSpaceOnUse">
      <path
         inkscape:connector-curvature="0"
         id="path4764"
         d="m 521.379,724.086 15.551,0 0,-19.645 -15.551,0 0,19.645 z" />
    </clipPath>
    <clipPath
       id="clipPath4774"
       clipPathUnits="userSpaceOnUse">
      <path
         inkscape:connector-curvature="0"
         id="path4776"
         d="m 62.801,721.148 486.402,0 0,-13.527 -486.402,0 0,13.527 z" />
    </clipPath>
    <clipPath
       id="clipPath4780"
       clipPathUnits="userSpaceOnUse">
      <path
         inkscape:connector-curvature="0"
         id="path4782"
         d="m 529.566,724.086 11.461,0 0,-19.645 -11.461,0 0,19.645 z" />
    </clipPath>
    <clipPath
       id="clipPath4792"
       clipPathUnits="userSpaceOnUse">
      <path
         inkscape:connector-curvature="0"
         id="path4794"
         d="m 62.801,705.055 486.402,0 0,-11.246 -486.402,0 0,11.246 z" />
    </clipPath>
    <clipPath
       id="clipPath4798"
       clipPathUnits="userSpaceOnUse">
      <path
         inkscape:connector-curvature="0"
         id="path4800"
         d="m 111.297,707.715 13.098,0 0,-16.371 -13.098,0 0,16.371 z" />
    </clipPath>
    <clipPath
       id="clipPath4810"
       clipPathUnits="userSpaceOnUse">
      <path
         inkscape:connector-curvature="0"
         id="path4812"
         d="m 62.801,682.883 486.402,0 0,-11.246 -486.402,0 0,11.246 z" />
    </clipPath>
    <clipPath
       id="clipPath4816"
       clipPathUnits="userSpaceOnUse">
      <path
         inkscape:connector-curvature="0"
         id="path4818"
         d="m 79.375,685.613 13.098,0 0,-17.188 -13.098,0 0,17.188 z" />
    </clipPath>
    <clipPath
       id="clipPath4828"
       clipPathUnits="userSpaceOnUse">
      <path
         inkscape:connector-curvature="0"
         id="path4830"
         d="m 62.801,685.473 486.402,0 0,-13.527 -486.402,0 0,13.527 z" />
    </clipPath>
    <clipPath
       id="clipPath4834"
       clipPathUnits="userSpaceOnUse">
      <path
         inkscape:connector-curvature="0"
         id="path4836"
         d="m 119.48,688.07 13.914,0 0,-18.828 -13.914,0 0,18.828 z" />
    </clipPath>
    <clipPath
       id="clipPath4846"
       clipPathUnits="userSpaceOnUse">
      <path
         inkscape:connector-curvature="0"
         id="path4848"
         d="m 62.801,685.473 486.402,0 0,-13.527 -486.402,0 0,13.527 z" />
    </clipPath>
    <clipPath
       id="clipPath4852"
       clipPathUnits="userSpaceOnUse">
      <path
         inkscape:connector-curvature="0"
         id="path4854"
         d="m 126.031,688.07 11.461,0 0,-18.828 -11.461,0 0,18.828 z" />
    </clipPath>
    <clipPath
       id="clipPath4864"
       clipPathUnits="userSpaceOnUse">
      <path
         inkscape:connector-curvature="0"
         id="path4866"
         d="m 62.801,685.473 486.402,0 0,-13.527 -486.402,0 0,13.527 z" />
    </clipPath>
    <clipPath
       id="clipPath4870"
       clipPathUnits="userSpaceOnUse">
      <path
         inkscape:connector-curvature="0"
         id="path4872"
         d="m 130.125,688.07 15.551,0 0,-18.828 -15.551,0 0,18.828 z" />
    </clipPath>
    <clipPath
       id="clipPath4882"
       clipPathUnits="userSpaceOnUse">
      <path
         inkscape:connector-curvature="0"
         id="path4884"
         d="m 62.801,685.473 486.402,0 0,-13.527 -486.402,0 0,13.527 z" />
    </clipPath>
    <clipPath
       id="clipPath4888"
       clipPathUnits="userSpaceOnUse">
      <path
         inkscape:connector-curvature="0"
         id="path4890"
         d="m 138.309,688.07 11.461,0 0,-18.828 -11.461,0 0,18.828 z" />
    </clipPath>
    <clipPath
       id="clipPath4900"
       clipPathUnits="userSpaceOnUse">
      <path
         inkscape:connector-curvature="0"
         id="path4902"
         d="m 62.801,671.996 486.402,0 0,-13.934 -486.402,0 0,13.934 z" />
    </clipPath>
    <clipPath
       id="clipPath4906"
       clipPathUnits="userSpaceOnUse">
      <path
         inkscape:connector-curvature="0"
         id="path4908"
         d="m 121.938,674.973 13.098,0 0,-19.645 -13.098,0 0,19.645 z" />
    </clipPath>
    <clipPath
       id="clipPath4918"
       clipPathUnits="userSpaceOnUse">
      <path
         inkscape:connector-curvature="0"
         id="path4920"
         d="m 62.801,671.75 486.402,0 0,-13.699 -486.402,0 0,13.699 z" />
    </clipPath>
    <clipPath
       id="clipPath4924"
       clipPathUnits="userSpaceOnUse">
      <path
         inkscape:connector-curvature="0"
         id="path4926"
         d="m 172.688,674.973 13.914,0 0,-19.645 -13.914,0 0,19.645 z" />
    </clipPath>
    <clipPath
       id="clipPath4936"
       clipPathUnits="userSpaceOnUse">
      <path
         inkscape:connector-curvature="0"
         id="path4938"
         d="m 62.801,671.75 486.402,0 0,-13.699 -486.402,0 0,13.699 z" />
    </clipPath>
    <clipPath
       id="clipPath4942"
       clipPathUnits="userSpaceOnUse">
      <path
         inkscape:connector-curvature="0"
         id="path4944"
         d="m 179.234,673.336 9.004,0 0,-18.008 -9.004,0 0,18.008 z" />
    </clipPath>
    <clipPath
       id="clipPath4954"
       clipPathUnits="userSpaceOnUse">
      <path
         inkscape:connector-curvature="0"
         id="path4956"
         d="m 62.801,669.305 486.402,0 0,-11.246 -486.402,0 0,11.246 z" />
    </clipPath>
    <clipPath
       id="clipPath4960"
       clipPathUnits="userSpaceOnUse">
      <path
         inkscape:connector-curvature="0"
         id="path4962"
         d="m 229.164,672.52 13.098,0 0,-17.188 -13.098,0 0,17.188 z" />
    </clipPath>
    <clipPath
       id="clipPath4972"
       clipPathUnits="userSpaceOnUse">
      <path
         inkscape:connector-curvature="0"
         id="path4974"
         d="m 62.801,338.324 486.402,0 0,-13.934 -486.402,0 0,13.934 z" />
    </clipPath>
    <clipPath
       id="clipPath4978"
       clipPathUnits="userSpaceOnUse">
      <path
         inkscape:connector-curvature="0"
         id="path4980"
         d="m 128.484,341.012 13.098,0 0,-19.645 -13.098,0 0,19.645 z" />
    </clipPath>
    <clipPath
       id="clipPath4990"
       clipPathUnits="userSpaceOnUse">
      <path
         inkscape:connector-curvature="0"
         id="path4992"
         d="m 62.801,338.324 486.402,0 0,-13.934 -486.402,0 0,13.934 z" />
    </clipPath>
    <clipPath
       id="clipPath4996"
       clipPathUnits="userSpaceOnUse">
      <path
         inkscape:connector-curvature="0"
         id="path4998"
         d="m 272.547,341.012 13.098,0 0,-19.645 -13.098,0 0,19.645 z" />
    </clipPath>
    <clipPath
       id="clipPath5008"
       clipPathUnits="userSpaceOnUse">
      <path
         inkscape:connector-curvature="0"
         id="path5010"
         d="m 62.801,338.324 486.402,0 0,-13.934 -486.402,0 0,13.934 z" />
    </clipPath>
    <clipPath
       id="clipPath5014"
       clipPathUnits="userSpaceOnUse">
      <path
         inkscape:connector-curvature="0"
         id="path5016"
         d="m 281.551,341.012 15.551,0 0,-19.645 -15.551,0 0,19.645 z" />
    </clipPath>
    <clipPath
       id="clipPath5026"
       clipPathUnits="userSpaceOnUse">
      <path
         inkscape:connector-curvature="0"
         id="path5028"
         d="m 62.801,338.324 486.402,0 0,-13.934 -486.402,0 0,13.934 z" />
    </clipPath>
    <clipPath
       id="clipPath5032"
       clipPathUnits="userSpaceOnUse">
      <path
         inkscape:connector-curvature="0"
         id="path5034"
         d="m 293.012,341.012 15.551,0 0,-19.645 -15.551,0 0,19.645 z" />
    </clipPath>
    <clipPath
       id="clipPath5044"
       clipPathUnits="userSpaceOnUse">
      <path
         inkscape:connector-curvature="0"
         id="path5046"
         d="m 62.801,338.324 486.402,0 0,-13.934 -486.402,0 0,13.934 z" />
    </clipPath>
    <clipPath
       id="clipPath5050"
       clipPathUnits="userSpaceOnUse">
      <path
         inkscape:connector-curvature="0"
         id="path5052"
         d="m 303.652,341.012 10.641,0 0,-19.645 -10.641,0 0,19.645 z" />
    </clipPath>
    <clipPath
       id="clipPath5062"
       clipPathUnits="userSpaceOnUse">
      <path
         inkscape:connector-curvature="0"
         id="path5064"
         d="m 62.801,338.324 486.402,0 0,-13.934 -486.402,0 0,13.934 z" />
    </clipPath>
    <clipPath
       id="clipPath5068"
       clipPathUnits="userSpaceOnUse">
      <path
         inkscape:connector-curvature="0"
         id="path5070"
         d="m 310.199,341.012 13.098,0 0,-19.645 -13.098,0 0,19.645 z" />
    </clipPath>
    <clipPath
       id="clipPath5080"
       clipPathUnits="userSpaceOnUse">
      <path
         inkscape:connector-curvature="0"
         id="path5082"
         d="m 62.801,338.301 486.402,0 0,-13.926 -486.402,0 0,13.926 z" />
    </clipPath>
    <clipPath
       id="clipPath5086"
       clipPathUnits="userSpaceOnUse">
      <path
         inkscape:connector-curvature="0"
         id="path5088"
         d="m 395.328,341.012 13.098,0 0,-19.645 -13.098,0 0,19.645 z" />
    </clipPath>
    <clipPath
       id="clipPath5098"
       clipPathUnits="userSpaceOnUse">
      <path
         inkscape:connector-curvature="0"
         id="path5100"
         d="m 62.801,342.25 486.402,0 0,-6.086 -486.402,0 0,6.086 z" />
    </clipPath>
    <clipPath
       id="clipPath5104"
       clipPathUnits="userSpaceOnUse">
      <path
         inkscape:connector-curvature="0"
         id="path5106"
         d="m 395.328,345.105 13.098,0 0,-11.461 -13.098,0 0,11.461 z" />
    </clipPath>
    <clipPath
       id="clipPath5116"
       clipPathUnits="userSpaceOnUse">
      <path
         inkscape:connector-curvature="0"
         id="path5118"
         d="m 62.801,342.273 486.402,0 0,-17.887 -486.402,0 0,17.887 z" />
    </clipPath>
    <clipPath
       id="clipPath5122"
       clipPathUnits="userSpaceOnUse">
      <path
         inkscape:connector-curvature="0"
         id="path5124"
         d="m 441.164,344.289 15.551,0 0,-22.918 -15.551,0 0,22.918 z" />
    </clipPath>
    <clipPath
       id="clipPath5134"
       clipPathUnits="userSpaceOnUse">
      <path
         inkscape:connector-curvature="0"
         id="path5136"
         d="m 62.801,342.273 486.402,0 0,-17.887 -486.402,0 0,17.887 z" />
    </clipPath>
    <clipPath
       id="clipPath5140"
       clipPathUnits="userSpaceOnUse">
      <path
         inkscape:connector-curvature="0"
         id="path5142"
         d="m 452.625,344.289 9.824,0 0,-22.918 -9.824,0 0,22.918 z" />
    </clipPath>
    <clipPath
       id="clipPath5152"
       clipPathUnits="userSpaceOnUse">
      <path
         inkscape:connector-curvature="0"
         id="path5154"
         d="m 62.801,338.301 486.402,0 0,-13.914 -486.402,0 0,13.914 z" />
    </clipPath>
    <clipPath
       id="clipPath5158"
       clipPathUnits="userSpaceOnUse">
      <path
         inkscape:connector-curvature="0"
         id="path5160"
         d="m 458.355,341.012 13.098,0 0,-19.645 -13.098,0 0,19.645 z" />
    </clipPath>
    <clipPath
       id="clipPath5170"
       clipPathUnits="userSpaceOnUse">
      <path
         inkscape:connector-curvature="0"
         id="path5172"
         d="m 62.801,342.273 486.402,0 0,-6.109 -486.402,0 0,6.109 z" />
    </clipPath>
    <clipPath
       id="clipPath5176"
       clipPathUnits="userSpaceOnUse">
      <path
         inkscape:connector-curvature="0"
         id="path5178"
         d="m 458.355,345.105 13.914,0 0,-11.461 -13.914,0 0,11.461 z" />
    </clipPath>
    <clipPath
       id="clipPath5188"
       clipPathUnits="userSpaceOnUse">
      <path
         inkscape:connector-curvature="0"
         id="path5190"
         d="m 62.801,322.055 486.402,0 0,-11.246 -486.402,0 0,11.246 z" />
    </clipPath>
    <clipPath
       id="clipPath5194"
       clipPathUnits="userSpaceOnUse">
      <path
         inkscape:connector-curvature="0"
         id="path5196"
         d="m 109.66,324.645 12.277,0 0,-16.371 -12.277,0 0,16.371 z" />
    </clipPath>
    <clipPath
       id="clipPath5206"
       clipPathUnits="userSpaceOnUse">
      <path
         inkscape:connector-curvature="0"
         id="path5208"
         d="m 62.801,304.648 486.402,0 0,-17.875 -486.402,0 0,17.875 z" />
    </clipPath>
    <clipPath
       id="clipPath5212"
       clipPathUnits="userSpaceOnUse">
      <path
         inkscape:connector-curvature="0"
         id="path5214"
         d="m 121.938,306.637 15.551,0 0,-22.918 -15.551,0 0,22.918 z" />
    </clipPath>
    <clipPath
       id="clipPath5224"
       clipPathUnits="userSpaceOnUse">
      <path
         inkscape:connector-curvature="0"
         id="path5226"
         d="m 62.801,304.648 486.402,0 0,-17.875 -486.402,0 0,17.875 z" />
    </clipPath>
    <clipPath
       id="clipPath5230"
       clipPathUnits="userSpaceOnUse">
      <path
         inkscape:connector-curvature="0"
         id="path5232"
         d="m 132.578,306.637 10.641,0 0,-22.918 -10.641,0 0,22.918 z" />
    </clipPath>
    <clipPath
       id="clipPath5242"
       clipPathUnits="userSpaceOnUse">
      <path
         inkscape:connector-curvature="0"
         id="path5244"
         d="m 62.801,304.648 486.402,0 0,-17.875 -486.402,0 0,17.875 z" />
    </clipPath>
    <clipPath
       id="clipPath5248"
       clipPathUnits="userSpaceOnUse">
      <path
         inkscape:connector-curvature="0"
         id="path5250"
         d="m 148.949,306.637 14.734,0 0,-22.918 -14.734,0 0,22.918 z" />
    </clipPath>
    <clipPath
       id="clipPath5260"
       clipPathUnits="userSpaceOnUse">
      <path
         inkscape:connector-curvature="0"
         id="path5262"
         d="m 62.801,304.648 486.402,0 0,-17.875 -486.402,0 0,17.875 z" />
    </clipPath>
    <clipPath
       id="clipPath5266"
       clipPathUnits="userSpaceOnUse">
      <path
         inkscape:connector-curvature="0"
         id="path5268"
         d="m 163.684,307.453 13.914,0 0,-23.738 -13.914,0 0,23.738 z" />
    </clipPath>
    <clipPath
       id="clipPath5278"
       clipPathUnits="userSpaceOnUse">
      <path
         inkscape:connector-curvature="0"
         id="path5280"
         d="m 62.801,304.648 486.402,0 0,-17.875 -486.402,0 0,17.875 z" />
    </clipPath>
    <clipPath
       id="clipPath5284"
       clipPathUnits="userSpaceOnUse">
      <path
         inkscape:connector-curvature="0"
         id="path5286"
         d="m 170.23,306.637 11.461,0 0,-22.918 -11.461,0 0,22.918 z" />
    </clipPath>
    <clipPath
       id="clipPath5296"
       clipPathUnits="userSpaceOnUse">
      <path
         inkscape:connector-curvature="0"
         id="path5298"
         d="m 62.801,304.648 486.402,0 0,-17.875 -486.402,0 0,17.875 z" />
    </clipPath>
    <clipPath
       id="clipPath5302"
       clipPathUnits="userSpaceOnUse">
      <path
         inkscape:connector-curvature="0"
         id="path5304"
         d="m 174.324,306.637 15.551,0 0,-22.918 -15.551,0 0,22.918 z" />
    </clipPath>
    <clipPath
       id="clipPath5314"
       clipPathUnits="userSpaceOnUse">
      <path
         inkscape:connector-curvature="0"
         id="path5316"
         d="m 62.801,304.648 486.402,0 0,-17.875 -486.402,0 0,17.875 z" />
    </clipPath>
    <clipPath
       id="clipPath5320"
       clipPathUnits="userSpaceOnUse">
      <path
         inkscape:connector-curvature="0"
         id="path5322"
         d="m 182.508,306.637 10.641,0 0,-22.918 -10.641,0 0,22.918 z" />
    </clipPath>
    <clipPath
       id="clipPath5332"
       clipPathUnits="userSpaceOnUse">
      <path
         inkscape:connector-curvature="0"
         id="path5334"
         d="m 62.801,300.699 486.402,0 0,-13.926 -486.402,0 0,13.926 z" />
    </clipPath>
    <clipPath
       id="clipPath5338"
       clipPathUnits="userSpaceOnUse">
      <path
         inkscape:connector-curvature="0"
         id="path5340"
         d="m 139.129,303.359 13.098,0 0,-19.645 -13.098,0 0,19.645 z" />
    </clipPath>
    <clipPath
       id="clipPath5350"
       clipPathUnits="userSpaceOnUse">
      <path
         inkscape:connector-curvature="0"
         id="path5352"
         d="m 62.801,304.648 486.402,0 0,-6.086 -486.402,0 0,6.086 z" />
    </clipPath>
    <clipPath
       id="clipPath5356"
       clipPathUnits="userSpaceOnUse">
      <path
         inkscape:connector-curvature="0"
         id="path5358"
         d="m 139.129,307.453 13.098,0 0,-11.461 -13.098,0 0,11.461 z" />
    </clipPath>
  </defs>
  <sodipodi:namedview
     id="base"
     pagecolor="#ffffff"
     bordercolor="#666666"
     borderopacity="1.0"
     inkscape:pageopacity="0.0"
     inkscape:pageshadow="2"
     inkscape:zoom="0.98994949"
     inkscape:cx="175.60536"
     inkscape:cy="35.407344"
     inkscape:document-units="px"
     inkscape:current-layer="layer1"
     showgrid="false"
     fit-margin-top="0"
     fit-margin-left="0"
     fit-margin-right="0"
     fit-margin-bottom="0"
     inkscape:window-width="1600"
     inkscape:window-height="876"
     inkscape:window-x="0"
     inkscape:window-y="24"
     inkscape:window-maximized="1" />
  <metadata
     id="metadata7">
    <rdf:RDF>
      <cc:Work
         rdf:about="">
        <dc:format>image/svg+xml</dc:format>
        <dc:type
           rdf:resource="http://purl.org/dc/dcmitype/StillImage" />
        <dc:title></dc:title>
      </cc:Work>
    </rdf:RDF>
  </metadata>
  <g
     inkscape:label="Capa 1"
     inkscape:groupmode="layer"
     id="layer1"
     transform="translate(-97.680371,-67.403731)">
    <g
       id="g4146"
       transform="matrix(1.25,0,0,-1.25,-16.72758,986.53609)" />
    <g
       id="g4422"
       transform="matrix(1.25,0,0,-1.25,-32.544629,846.60278)">
      <g
         id="g4424"
         clip-path="url(#clipPath4426)">
        <g
           id="g4430"
           clip-path="url(#clipPath4432)">
          <path
             d="M 104.18,416.359 292.074,586.926 507.91,548.43 320.016,377.863 104.18,416.359 Z"
             style="fill:#afc6e9;fill-opacity:1;fill-rule:nonzero;stroke:none"
             id="path4436"
             inkscape:connector-curvature="0" />
          <g
             id="g4438"
             transform="matrix(1,0,0,-0.998487,0,792)">
            <path
               d="m 195.227,354.732 134.445,27.506"
               style="fill:none;stroke:#000000;stroke-width:0.79837698;stroke-linecap:butt;stroke-linejoin:miter;stroke-miterlimit:4;stroke-dasharray:none;stroke-opacity:1"
               id="path4440"
               inkscape:connector-curvature="0" />
          </g>
          <path
             d="m 325.965,413.066 4.742,-2.929 -5.512,-0.836 c 1.047,0.941 1.352,2.465 0.77,3.765 z"
             style="fill:#000000;fill-opacity:1;fill-rule:evenodd;stroke:none"
             id="path4442"
             inkscape:connector-curvature="0" />
          <g
             id="g4444"
             transform="matrix(1,0,0,-0.998487,0,792)">
            <path
               d="M 195.695,355.831 322.527,224.942"
               style="fill:none;stroke:#000000;stroke-width:0.79837698;stroke-linecap:butt;stroke-linejoin:miter;stroke-miterlimit:4;stroke-dasharray:none;stroke-opacity:1"
               id="path4446"
               inkscape:connector-curvature="0" />
          </g>
          <g
             id="g4448"
             transform="matrix(-0.969021,-0.998487,-1,0.967555,0,792)">
            <path
               d="m -42.882,-278.751 1.145,-1.149 -4.013,1.147 4.015,1.148 -1.147,-1.146 z"
               style="fill:#000000;fill-opacity:1;fill-rule:evenodd;stroke:#000000;stroke-width:0.30578601;stroke-linecap:butt;stroke-linejoin:miter;stroke-miterlimit:4;stroke-dasharray:none;stroke-opacity:1"
               id="path4450"
               inkscape:connector-curvature="0" />
          </g>
          <g
             id="g4452"
             transform="matrix(1,0,0,-0.998487,0,792)">
            <path
               d="m 196.184,354.951 70.73,-181.544"
               style="fill:#000000;fill-opacity:1;fill-rule:evenodd;stroke:#000000;stroke-width:2.45654392;stroke-linecap:butt;stroke-linejoin:miter;stroke-miterlimit:4;stroke-dasharray:none;stroke-opacity:1"
               id="path4454"
               inkscape:connector-curvature="0" />
          </g>
          <g
             id="g4456"
             transform="matrix(-0.389614,-0.998487,-1,0.389025,0,792)">
            <path
               d="m 69.423,-290.396 4.578,-4.576 -16.024,4.579 16.024,4.577 -4.578,-4.58 z"
               style="fill:#000000;fill-opacity:1;fill-rule:evenodd;stroke:#000000;stroke-width:1.22077298;stroke-linecap:butt;stroke-linejoin:miter;stroke-miterlimit:4;stroke-dasharray:none;stroke-opacity:1"
               id="path4458"
               inkscape:connector-curvature="0" />
          </g>
          <text
             transform="matrix(1,0,0,-0.99848713,322.24579,416.13596)"
             style="font-style:italic;font-variant:normal;font-size:12.27668858px;font-family:'DejaVu Serif Italic';-inkscape-font-specification:DejaVuSerif-Italic;writing-mode:lr-tb;fill:#000000;fill-opacity:1;fill-rule:nonzero;stroke:none"
             id="text4460">
            <tspan
               x="0"
               y="0"
               id="tspan4462">A</tspan>
          </text>
          <path
             d="m 197.988,437.945 c 0,-1.093 -0.883,-1.976 -1.976,-1.976 -1.094,0 -1.977,0.883 -1.977,1.976 0,1.09 0.883,1.973 1.977,1.973 1.093,0 1.976,-0.883 1.976,-1.973"
             style="fill:#000000;fill-opacity:1;fill-rule:nonzero;stroke:none"
             id="path4464"
             inkscape:connector-curvature="0" />
          <text
             transform="matrix(0.98527418,0,0,-1,242.29344,611.03901)"
             style="font-style:italic;font-variant:normal;font-size:17.96653748px;font-family:'Liberation Serif Italic';-inkscape-font-specification:LiberationSerif-Italic;writing-mode:lr-tb;fill:#000000;fill-opacity:1;fill-rule:nonzero;stroke:none"
             id="text4466">
            <tspan
               x="0"
               y="0"
               id="tspan4468">y</tspan>
          </text>
          <text
             transform="matrix(0.98527413,0,0,-1,315.80704,567.89946)"
             style="font-variant:normal;font-weight:normal;font-size:9.03138161px;font-family:'DejaVu Serif';-inkscape-font-specification:DejaVuSerif;writing-mode:lr-tb;fill:#000000;fill-opacity:1;fill-rule:nonzero;stroke:none"
             id="text4470">
            <tspan
               x="0"
               y="0"
               id="tspan4472">1</tspan>
          </text>
          <text
             transform="matrix(1,0,0,-0.99848713,306.70901,570.48075)"
             style="font-style:italic;font-variant:normal;font-size:12.27668858px;font-family:'DejaVu Serif Italic';-inkscape-font-specification:DejaVuSerif-Italic;writing-mode:lr-tb;fill:#000000;fill-opacity:1;fill-rule:nonzero;stroke:none"
             id="text4474">
            <tspan
               x="0"
               y="0"
               id="tspan4476">A</tspan>
          </text>
          <text
             transform="matrix(1,0,0,-0.88162414,330.41602,413.46579)"
             style="font-style:italic;font-variant:normal;font-size:10.2489481px;font-family:'DejaVu Serif Italic';-inkscape-font-specification:DejaVuSerif-Italic;writing-mode:lr-tb;fill:#000000;fill-opacity:1;fill-rule:nonzero;stroke:none"
             id="text4478">
            <tspan
               x="0"
               y="0"
               id="tspan4480">n</tspan>
          </text>
          <path
             d="m 426.227,531.812 0,0.02 -0.004,0.008 0,0.027 -0.008,0.004 0,0.008 -0.004,0.012 -0.008,0.011 -0.004,0.008 -0.008,0.012 -0.003,0.008 -0.004,0.011 -0.012,0.004 -0.008,0.004 -0.012,0.012 -0.004,0.008 -0.011,0.004 -0.012,0.007 -0.012,0 -0.004,0.004 -0.011,0.008 -0.012,0 -0.012,0.004 -0.015,0 -0.012,0.004 -0.031,0 -0.02,0.008 -0.051,0 c -0.472,0 -1.14,-0.418 -1.168,-0.418 -0.558,-0.363 -0.672,-0.555 -1.007,-1.031 -0.864,-1.305 -2.086,-2.258 -3.899,-2.258 -2.508,0 -4.769,1.812 -4.769,5.984 0,2.512 1,5.82 2.484,8.02 1.226,1.781 2.73,3.23 5.602,3.23 1.058,0 1.73,-0.39 1.73,-1.418 0,-0.98 -1.035,-2.953 -1.367,-3.512 -0.172,-0.304 -0.172,-0.363 -0.172,-0.417 0,-0.196 0.144,-0.196 0.312,-0.196 0.555,0 1.59,0.613 1.918,1.063 0.059,0.109 1.676,2.836 1.676,4.257 0,1.532 -1.254,1.754 -2.258,1.754 -4.043,0 -7.363,-2.644 -8.644,-4.203 -3.313,-4.011 -3.649,-8.324 -3.649,-9.773 0,-4.063 2.067,-6.32 5.293,-6.32 4.489,0 8.2,4.343 8.2,5.042 z"
             style="fill:#000000;fill-opacity:1;fill-rule:evenodd;stroke:none"
             id="path4482"
             inkscape:connector-curvature="0" />
          <path
             d="m 437.855,520.758 0,0.035 -0.007,0.004 0,0.019 -0.004,0.008 0,0.012 -0.004,0.008 -0.008,0.011 -0.004,0.008 -0.008,0.02 -0.004,0.012 -0.011,0.011 -0.035,0.047 -0.032,0.039 -0.015,0.024 -0.035,0.035 -0.012,0.015 -0.024,0.024 -0.011,0.015 -0.016,0.012 -0.012,0.016 -0.015,0.015 -0.012,0.02 -0.207,0.207 c -3.484,3.508 -4.375,8.766 -4.375,13.023 0,4.844 1.058,9.688 4.488,13.172 0.363,0.328 0.363,0.383 0.363,0.469 0,0.195 -0.113,0.277 -0.281,0.277 -0.277,0 -2.785,-1.894 -4.429,-5.429 -1.422,-3.059 -1.758,-6.149 -1.758,-8.489 0,-2.168 0.308,-5.539 1.84,-8.683 1.675,-3.418 4.07,-5.231 4.347,-5.231 0.168,0 0.281,0.086 0.281,0.274 z"
             style="fill:#000000;fill-opacity:1;fill-rule:evenodd;stroke:none"
             id="path4484"
             inkscape:connector-curvature="0" />
          <path
             d="m 452.473,546.145 -0.012,0.031 -0.016,0.035 -0.011,0.035 -0.079,0.137 -0.027,0.051 -0.031,0.046 -0.031,0.043 -0.028,0.039 -0.035,0.04 -0.027,0.035 -0.035,0.027 -0.032,0.027 -0.027,0.028 -0.07,0.047 -0.032,0.015 -0.035,0.016 -0.039,0.012 -0.031,0.011 -0.035,0.012 -0.039,0.012 -0.039,0.004 -0.035,0.004 -0.039,0.007 -0.04,0.004 -0.039,0 -0.039,0.008 -0.211,0 c -0.785,0 -0.894,-0.223 -1.086,-0.726 l -6.918,-16.754 c -0.167,-0.418 -0.246,-0.641 -2.367,-0.641 l -0.586,0 0,-1.309 6.946,0 0,1.309 c -0.059,0 -2.485,0 -2.485,0.363 0,0.028 0.082,0.305 0.11,0.336 l 1.394,3.363 0.559,1.313 3.179,7.734 3.172,-7.734 -6.351,0 -0.559,-1.313 7.469,0 1.676,-4.062 -2.649,0 0,-1.309 9.453,0 0,1.309 -2.711,0 -7.132,17.395 z"
             style="fill:#000000;fill-opacity:1;fill-rule:evenodd;stroke:none"
             id="path4486"
             inkscape:connector-curvature="0" />
          <path
             d="m 471.383,534.398 -0.008,0.207 0,0.219 -0.004,0.219 -0.008,0.227 -0.019,0.468 -0.035,0.492 -0.051,0.516 -0.055,0.524 -0.078,0.546 -0.09,0.559 -0.113,0.57 -0.129,0.582 -0.148,0.586 -0.168,0.594 -0.2,0.594 -0.215,0.597 -0.124,0.293 -0.122,0.305 -0.136,0.297 -0.141,0.293 c -1.672,3.422 -4.066,5.23 -4.348,5.23 -0.168,0 -0.277,-0.109 -0.277,-0.277 0,-0.086 0,-0.141 0.524,-0.644 2.738,-2.75 4.328,-7.18 4.328,-12.997 0,-4.761 -1.036,-9.656 -4.489,-13.164 -0.363,-0.336 -0.363,-0.386 -0.363,-0.476 0,-0.16 0.109,-0.274 0.277,-0.274 0.282,0 2.789,1.891 4.434,5.426 1.422,3.063 1.758,6.152 1.758,8.488 z"
             style="fill:#000000;fill-opacity:1;fill-rule:evenodd;stroke:none"
             id="path4488"
             inkscape:connector-curvature="0" />
        </g>
      </g>
    </g>
  </g>
</svg>
