<?xml version="1.0" encoding="UTF-8" standalone="no"?>
<!-- Created with Inkscape (http://www.inkscape.org/) -->

<svg
   xmlns:dc="http://purl.org/dc/elements/1.1/"
   xmlns:cc="http://creativecommons.org/ns#"
   xmlns:rdf="http://www.w3.org/1999/02/22-rdf-syntax-ns#"
   xmlns:svg="http://www.w3.org/2000/svg"
   xmlns="http://www.w3.org/2000/svg"
   xmlns:sodipodi="http://sodipodi.sourceforge.net/DTD/sodipodi-0.dtd"
   xmlns:inkscape="http://www.inkscape.org/namespaces/inkscape"
   id="svg2"
   version="1.1"
   inkscape:version="0.91 r13725"
   xml:space="preserve"
   width="847.20752"
   height="227.83125"
   viewBox="0 0 847.20752 227.83125"
   sodipodi:docname="ml-process.svg"><metadata
     id="metadata8"><rdf:RDF><cc:Work
         rdf:about=""><dc:format>image/svg+xml</dc:format><dc:type
           rdf:resource="http://purl.org/dc/dcmitype/StillImage" /><dc:title></dc:title></cc:Work></rdf:RDF></metadata><defs
     id="defs6" /><sodipodi:namedview
     pagecolor="#ffffff"
     bordercolor="#666666"
     borderopacity="1"
     objecttolerance="10"
     gridtolerance="10"
     guidetolerance="10"
     inkscape:pageopacity="0"
     inkscape:pageshadow="2"
     inkscape:window-width="1871"
     inkscape:window-height="1056"
     id="namedview4"
     showgrid="false"
     inkscape:zoom="0.78375131"
     inkscape:cx="591.26579"
     inkscape:cy="62.242826"
     inkscape:window-x="49"
     inkscape:window-y="24"
     inkscape:window-maximized="1"
     inkscape:current-layer="g10" /><g
     id="g10"
     inkscape:groupmode="layer"
     inkscape:label="ml-process"
     transform="matrix(1.25,0,0,-1.25,0,227.83125)"><g
       id="g12"><path
         d="m 0.375,79.816 c 0,6.582 5.332,11.914 11.914,11.914 l 81.715,0 c 3.16,0 6.187,-1.254 8.422,-3.488 2.234,-2.235 3.492,-5.266 3.492,-8.426 l 0,-47.653 c 0,-6.578 -5.336,-11.914 -11.914,-11.914 l -81.715,0 c -6.582,0 -11.914,5.336 -11.914,11.914 l 0,47.653 z"
         style="fill:#20124d;fill-opacity:1;fill-rule:nonzero;stroke:#3d85c6;stroke-width:0.75;stroke-linecap:butt;stroke-linejoin:round;stroke-miterlimit:14.33558846;stroke-dasharray:none;stroke-opacity:1"
         id="path14"
         inkscape:connector-curvature="0" /><path
         d="m 139.219,79.816 c 0,6.582 5.332,11.914 11.914,11.914 l 81.715,0 c 3.16,0 6.191,-1.254 8.425,-3.488 2.235,-2.235 3.489,-5.266 3.489,-8.426 l 0,-47.653 c 0,-6.578 -5.336,-11.914 -11.914,-11.914 l -81.715,0 c -6.582,0 -11.914,5.336 -11.914,11.914 l 0,47.653 z"
         style="fill:#20124d;fill-opacity:1;fill-rule:nonzero;stroke:#3d85c6;stroke-width:0.75;stroke-linecap:butt;stroke-linejoin:round;stroke-miterlimit:14.33558846;stroke-dasharray:none;stroke-opacity:1"
         id="path16"
         inkscape:connector-curvature="0" /><path
         d="m 286.109,79.816 c 0,6.582 5.336,11.914 11.914,11.914 l 81.715,0 c 3.16,0 6.192,-1.254 8.426,-3.488 2.234,-2.235 3.488,-5.266 3.488,-8.426 l 0,-47.653 c 0,-6.578 -5.332,-11.914 -11.914,-11.914 l -81.715,0 c -6.578,0 -11.914,5.336 -11.914,11.914 l 0,47.653 z"
         style="fill:#20124d;fill-opacity:1;fill-rule:nonzero;stroke:#3d85c6;stroke-width:0.75;stroke-linecap:butt;stroke-linejoin:round;stroke-miterlimit:14.33558846;stroke-dasharray:none;stroke-opacity:1"
         id="path18"
         inkscape:connector-curvature="0" /><path
         d="m 428.977,79.816 c 0,6.582 5.335,11.914 11.914,11.914 l 81.718,0 c 3.157,0 6.188,-1.254 8.422,-3.488 2.235,-2.235 3.489,-5.266 3.489,-8.426 l 0,-47.653 c 0,-6.578 -5.332,-11.914 -11.911,-11.914 l -81.718,0 c -6.579,0 -11.914,5.336 -11.914,11.914 l 0,47.653 z"
         style="fill:#20124d;fill-opacity:1;fill-rule:nonzero;stroke:#3d85c6;stroke-width:0.75;stroke-linecap:butt;stroke-linejoin:round;stroke-miterlimit:14.33558846;stroke-dasharray:none;stroke-opacity:1"
         id="path20"
         inkscape:connector-curvature="0" /><path
         d="m 571.848,79.816 c 0,6.582 5.332,11.914 11.91,11.914 l 81.719,0 c 3.16,0 6.187,-1.254 8.421,-3.488 2.235,-2.235 3.493,-5.266 3.493,-8.426 l 0,-47.653 c 0,-6.578 -5.336,-11.914 -11.914,-11.914 l -81.719,0 c -6.578,0 -11.91,5.336 -11.91,11.914 l 0,47.653 z"
         style="fill:#20124d;fill-opacity:1;fill-rule:nonzero;stroke:#3d85c6;stroke-width:0.75;stroke-linecap:butt;stroke-linejoin:round;stroke-miterlimit:14.33558846;stroke-dasharray:none;stroke-opacity:1"
         id="path22"
         inkscape:connector-curvature="0" /><path
         d="m 286.109,169.976 c 0,6.578 5.336,11.914 11.914,11.914 l 81.715,0 c 3.16,0 6.192,-1.254 8.426,-3.488 2.234,-2.235 3.488,-5.266 3.488,-8.426 l 0,-47.652 c 0,-6.582 -5.332,-11.914 -11.914,-11.914 l -81.715,0 c -6.578,0 -11.914,5.332 -11.914,11.914 l 0,47.652 z"
         style="fill:#20124d;fill-opacity:1;fill-rule:nonzero;stroke:#3d85c6;stroke-width:0.75;stroke-linecap:butt;stroke-linejoin:round;stroke-miterlimit:14.33558846;stroke-dasharray:none;stroke-opacity:1"
         id="path24"
         inkscape:connector-curvature="0" /><path
         d="m 105.918,55.992 15.305,0"
         style="fill:none;stroke:#424242;stroke-width:3;stroke-linecap:butt;stroke-linejoin:round;stroke-miterlimit:14.33558846;stroke-dasharray:none;stroke-opacity:1"
         id="path26"
         inkscape:connector-curvature="0" /><path
         d="m 121.223,51.035 13.617,4.957 -13.617,4.953 0,-9.91 z"
         style="fill:#424242;fill-opacity:1;fill-rule:evenodd;stroke:#424242;stroke-width:3;stroke-linecap:butt;stroke-linejoin:miter;stroke-miterlimit:11.47371292;stroke-dasharray:none;stroke-opacity:1"
         id="path28"
         inkscape:connector-curvature="0" /><path
         d="m 244.77,55.992 23.339,0"
         style="fill:none;stroke:#424242;stroke-width:3;stroke-linecap:butt;stroke-linejoin:round;stroke-miterlimit:14.33558846;stroke-dasharray:none;stroke-opacity:1"
         id="path30"
         inkscape:connector-curvature="0" /><path
         d="m 268.109,51.035 13.614,4.957 -13.614,4.953 0,-9.91 z"
         style="fill:#424242;fill-opacity:1;fill-rule:evenodd;stroke:#424242;stroke-width:3;stroke-linecap:butt;stroke-linejoin:miter;stroke-miterlimit:11.47371292;stroke-dasharray:none;stroke-opacity:1"
         id="path32"
         inkscape:connector-curvature="0" /><path
         d="m 391.656,55.992 19.321,0"
         style="fill:none;stroke:#424242;stroke-width:3;stroke-linecap:butt;stroke-linejoin:round;stroke-miterlimit:14.33558846;stroke-dasharray:none;stroke-opacity:1"
         id="path34"
         inkscape:connector-curvature="0" /><path
         d="m 410.977,51.035 13.617,4.957 -13.617,4.953 0,-9.91 z"
         style="fill:#424242;fill-opacity:1;fill-rule:evenodd;stroke:#424242;stroke-width:3;stroke-linecap:butt;stroke-linejoin:miter;stroke-miterlimit:11.47371292;stroke-dasharray:none;stroke-opacity:1"
         id="path36"
         inkscape:connector-curvature="0" /><path
         d="m 534.523,55.992 19.325,0"
         style="fill:none;stroke:#424242;stroke-width:3;stroke-linecap:butt;stroke-linejoin:round;stroke-miterlimit:14.33558846;stroke-dasharray:none;stroke-opacity:1"
         id="path38"
         inkscape:connector-curvature="0" /><path
         d="m 553.848,51.035 13.613,4.957 -13.613,4.953 0,-9.91 z"
         style="fill:#424242;fill-opacity:1;fill-rule:evenodd;stroke:#424242;stroke-width:3;stroke-linecap:butt;stroke-linejoin:miter;stroke-miterlimit:11.47371292;stroke-dasharray:none;stroke-opacity:1"
         id="path40"
         inkscape:connector-curvature="0" /><path
         d="m 481.75,20.249 c 0,-9.375 -35.719,-18.742 -71.434,-18.75 -17.859,-0.004 -35.714,2.336 -49.109,5.844 -1.676,0.438 -3.281,0.895 -4.805,1.367 -0.761,0.235 -1.507,0.477 -2.23,0.719 -0.18,0.063 -0.36,0.125 -0.539,0.184 l -0.153,0.054"
         style="fill:none;stroke:#424242;stroke-width:3;stroke-linecap:butt;stroke-linejoin:round;stroke-miterlimit:14.33558846;stroke-dasharray:none;stroke-opacity:1"
         id="path42"
         inkscape:connector-curvature="0" /><path
         d="m 356.379,13.687 -13.938,3.949 8.137,-11.984 5.801,8.035 z"
         style="fill:#424242;fill-opacity:1;fill-rule:evenodd;stroke:#424242;stroke-width:3;stroke-linecap:butt;stroke-linejoin:miter;stroke-miterlimit:11.47371292;stroke-dasharray:none;stroke-opacity:1"
         id="path44"
         inkscape:connector-curvature="0" /><path
         d="m 191.988,91.73 c 0,13.605 11.766,27.211 29.41,37.418 8.825,5.101 19.118,9.355 30.145,12.332 2.758,0.742 5.562,1.406 8.398,1.984 1.418,0.289 2.848,0.559 4.282,0.801 0.718,0.125 1.437,0.242 2.156,0.352 0.359,0.054 0.723,0.109 1.082,0.164 l 0.684,0.093"
         style="fill:none;stroke:#424242;stroke-width:3;stroke-linecap:butt;stroke-linejoin:round;stroke-miterlimit:14.33558846;stroke-dasharray:none;stroke-opacity:1"
         id="path46"
         inkscape:connector-curvature="0" /><path
         d="m 268.496,139.933 13.231,5.91 -13.934,3.977 0.703,-9.887 z"
         style="fill:#424242;fill-opacity:1;fill-rule:evenodd;stroke:#424242;stroke-width:3;stroke-linecap:butt;stroke-linejoin:miter;stroke-miterlimit:11.47371292;stroke-dasharray:none;stroke-opacity:1"
         id="path48"
         inkscape:connector-curvature="0" /><path
         d="m 391.652,146.148 c 22.524,0 45.047,-6.801 61.942,-17.008 8.445,-5.102 15.484,-11.055 20.41,-17.43 0.617,-0.8 1.199,-1.601 1.75,-2.414 0.066,-0.101 0.137,-0.199 0.203,-0.301 l 0.121,-0.187"
         style="fill:none;stroke:#424242;stroke-width:3;stroke-linecap:butt;stroke-linejoin:round;stroke-miterlimit:14.33558846;stroke-dasharray:none;stroke-opacity:1"
         id="path50"
         inkscape:connector-curvature="0" /><path
         d="m 471.375,107.249 8.992,-11.363 0.414,14.484 -9.406,-3.121 z"
         style="fill:#424242;fill-opacity:1;fill-rule:evenodd;stroke:#424242;stroke-width:3;stroke-linecap:butt;stroke-linejoin:miter;stroke-miterlimit:11.47371292;stroke-dasharray:none;stroke-opacity:1"
         id="path52"
         inkscape:connector-curvature="0" /><text
         transform="matrix(1,0,0,-1,34.512607,60.395379)"
         style="font-variant:normal;font-weight:normal;font-size:18.00000191px;font-family:'DejaVu Sans';-inkscape-font-specification:DejaVuSans;writing-mode:lr-tb;fill:#ffffff;fill-opacity:1;fill-rule:nonzero;stroke:none"
         id="text54"><tspan
           x="0 11.790001 21.546003 27.414003"
           y="0"
           sodipodi:role="line"
           id="tspan56">Data</tspan><tspan
           x="-26.257322 -14.521321 -5.1253204 5.0806804 14.998682 19.336681 28.534683 32.872684 38.740685 43.078686 53.320686 63.166687"
           y="21.749996"
           sodipodi:role="line"
           id="tspan58">Acquisition </tspan><tspan
           x="138.8445 150.63449 160.39049 166.2585"
           y="0"
           sodipodi:role="line"
           id="tspan60">Data</tspan><tspan
           x="122.60669 134.30669 138.64468 148.16669 157.8687 167.76869 172.10669 182.0067"
           y="21.749996"
           sodipodi:role="line"
           id="tspan62">Cleaning</tspan><tspan
           x="286.6503 297.36029 306.88229 316.13428"
           y="-91.653564"
           sodipodi:role="line"
           id="tspan64">Test</tspan><tspan
           x="285.73624 297.52621 307.28223 313.15024"
           y="-69.903564"
           sodipodi:role="line"
           id="tspan66">Data</tspan><tspan
           x="279.35098 295.04697 305.28897 315.42297 324.92697"
           y="-13.306105"
           sodipodi:role="line"
           id="tspan68">Model</tspan><tspan
           x="263.88663 274.59662 280.6806 290.43661 294.72061 304.63861 308.97662 318.87662 328.95663 333.38461"
           y="8.4438906"
           sodipodi:role="line"
           id="tspan70">Training &amp;</tspan><tspan
           x="272.16153 283.35751 293.25754 297.59552 301.95154 312.01352 316.35153 326.25153"
           y="30.193888"
           sodipodi:role="line"
           id="tspan72">Building</tspan><tspan
           x="422.21912 437.9151 448.1571 458.29111 467.7951"
           y="-1.4911742"
           sodipodi:role="line"
           id="tspan74">Model</tspan><tspan
           x="417.31921 428.02921 437.55121 446.80322 452.61722 456.9552 466.85522"
           y="20.258821"
           sodipodi:role="line"
           id="tspan76">Testing</tspan><tspan
           x="565.08722 580.7832 591.02521 601.15924 610.66321 614.96521"
           y="-3.6000005e-05"
           sodipodi:role="line"
           id="tspan78">Model </tspan><tspan
           x="542.24884 554.03882 563.56085 573.64081 577.97882 588.16681 596.68085 612.43085 621.95282 631.85284"
           y="21.74996"
           sodipodi:role="line"
           id="tspan80">Deployment</tspan></text>
</g></g></svg>